<?xml version="1.0" encoding="UTF-8" standalone="no"?>
<!-- Created with Inkscape (http://www.inkscape.org/) -->

<svg
   version="1.1"
   id="svg1"
   width="840"
   height="840"
   viewBox="0 0 840 840"
   sodipodi:docname="foredeck union just logo.svg"
   inkscape:version="1.3 (0e150ed, 2023-07-21)"
   inkscape:export-filename="foredeck union.pdf"
   inkscape:export-xdpi="96"
   inkscape:export-ydpi="96"
   xmlns:inkscape="http://www.inkscape.org/namespaces/inkscape"
   xmlns:sodipodi="http://sodipodi.sourceforge.net/DTD/sodipodi-0.dtd"
   xmlns="http://www.w3.org/2000/svg"
   xmlns:svg="http://www.w3.org/2000/svg">
  <defs
     id="defs1" />
  <sodipodi:namedview
     id="namedview1"
     pagecolor="#ffffff"
     bordercolor="#000000"
     borderopacity="0.25"
     inkscape:showpageshadow="2"
     inkscape:pageopacity="0.0"
     inkscape:pagecheckerboard="true"
     inkscape:deskcolor="#d1d1d1"
     inkscape:zoom="0.84472656"
     inkscape:cx="510.81619"
     inkscape:cy="700.8185"
     inkscape:window-width="2560"
     inkscape:window-height="1387"
     inkscape:window-x="0"
     inkscape:window-y="25"
     inkscape:window-maximized="1"
     inkscape:current-layer="g1" />
  <g
     inkscape:groupmode="layer"
     inkscape:label="Image"
     id="g1">
    <path
       style="fill:#030311;stroke:#ffffff;stroke-width:0;stroke-dasharray:none;stroke-opacity:1"
       d="m 314.74274,124.921 44,22 c 10.78098,-23.06372 25.54657,-44.94568 38.28394,-67 4.93592,-8.54639 12.46433,-18.72833 23.71606,-17.58099 13.7627,1.40338 20.39697,17.19561 26.42438,27.58099 15.91314,27.41882 32.01246,54.73358 48.17901,81.99999 67.8208,114.38617 133.58178,229.97205 201.99701,344 22.49197,37.48767 44.01127,75.5863 66.60347,113.00004 9.4681,15.6797 20.6518,35.2285 6.4675,51.9853 -9.5466,11.2779 -23.1456,11.0146 -36.6714,11.0146 h -71 -306.99997 -210 c -21.85675,0 -61.079128,7.3794 -76.786268,-11.0038 -19.37697,-22.6783 9.95723,-56.3724 21.20757,-75.99614 28.283078,-49.33356 56.749568,-98.58032 84.859548,-148 7.37885,-12.9726 14.83988,-25.91895 22.02472,-39 2.13526,-3.88757 7.5965,-10.15161 7.15198,-14.79016 -0.35455,-3.69983 -6.69852,-6.43408 -9.45755,-8.14581 -9.64612,-5.98456 -20.34952,-13.16468 -31,-17.06403 -23.36201,35.41821 -43.09326,74.00739 -63.861108,111 -21.62072,38.51178 -44.79883,76.20386 -65.90818,115 -7.12799,13.10024 -16.01412,25.72914 -20.71142,40.00004 -7.9380102,24.1164 -2.59665,50.2076 12.99846,69.9999 26.49607,33.6272 69.55763,26 107.482248,26 h 270 300.99997 c 41.9608,0 89.4324,8.1297 114.5472,-34 21.5973,-36.2291 5.4207,-70.132 -13.2662,-102.99994 -21.5495,-37.90314 -43.9715,-75.29163 -65.8566,-113 C 671.55231,371.69571 601.78052,254.14389 533.16712,135.921 c -12.78278,-22.02509 -26.09833,-43.79706 -38.5633,-66 -13.37097,-23.81678 -26.11767,-48.88386 -54.86108,-56.10493 -69.99112,-17.5835605 -98.81229,61.33375 -125,111.10493 m -40,204.99999 -29,-55 c 11.86688,-2.4494 32.043,-3.58459 41.90665,-10.70294 12.35339,-8.9151 20.00686,-30.36426 27.51773,-43.29706 6.6437,-11.43964 19.50845,-25.84613 5.53164,-37.72223 -7.68753,-6.5321 -19.19818,-4.84875 -25.42669,2.76544 -11.52799,14.09272 -15.72498,34.36847 -28.13889,47.67902 -8.69894,9.32727 -29.99756,7.27655 -41.39044,12.13196 -8.99817,3.83484 -13.5705,11.80078 -24,13.68127 -12.6055,2.27289 -24.18484,-3.31256 -36,-6.6759 -5.07442,-1.44452 -11.7478,-2.27399 -15.62114,-6.13733 -6.66627,-6.64911 -10.37242,-17.594 -14.95448,-25.72223 -6.47745,-11.49048 -14.60999,-38.70642 -31.42438,-36.63501 -10.673598,1.31494 -17.910418,12.34772 -15.467588,22.63501 3.9115,16.47223 18.706748,34.24536 27.043208,49 3.91831,6.93494 7.75173,19.44922 14.63425,23.86108 11.45689,7.34412 31.59193,8.71283 44.79013,12.01239 5.09402,1.2735 12.4454,1.87879 16.3912,5.63654 5.9043,5.62286 10.01508,15.3941 13.91437,22.48999 6.64685,12.09589 13.58896,24.00311 20.41358,36 6.0086,10.56244 12.48822,21.53406 25.28085,24.4707 27.27228,6.2605 50.12729,-27.79834 65.71451,-45.4707 4.69903,-5.32764 9.77323,-12.40021 16.28549,-15.58099 8.0054,-3.9101 18.34958,-4.92218 27,-6.84339 15.08038,-3.3493 29.93903,-7.6015 45,-11.00079 10.45587,-2.35993 21.79431,-10.25427 19.46759,-22.57483 -4.45608,-23.59625 -30.07901,-13.20184 -45.46759,-9.37347 -18.74332,4.66296 -46.8342,6.2984 -63,17.07562 -16.17273,10.7818 -27.43512,29.61981 -41,43.29785 m -86,-139.53241 c -37.80724,7.13037 -27.89433,66.19952 10,59.06482 38.25488,-7.20258 28.15625,-66.26105 -10,-59.06482 m 61,338.53241 27.78241,43 43.21759,68.00004 c -12.05667,-0.1012 -23.74426,-7.5009 -26,-20 -4.70343,0 -14.3862,-1.8558 -18.3017,1.0277 -9.57126,7.0485 -10.72769,18.942 -25.6983,18.943 -15.08318,9e-4 -16.10254,-11.8421 -25.69907,-18.943 -4.05792,-3.0026 -14.40667,-1.0277 -19.30093,-1.0277 -7.26685,25.1766 -42.60114,26.6914 -49,0 h -18 v 25 c 9.91754,0.1171 14.50276,9.4751 23,13.7237 18.75964,9.3798 42.02081,3.2803 54,-13.7237 h 1 c 15.52621,22.0412 52.33643,25.3509 67,0 h 1 c 12.87997,22.2673 55.04646,25.5626 67,0 13.06848,13.0684 26.03638,20.8243 45,16.5748 7.82547,-1.7535 14.88815,-7.0184 23,-6.5594 9.8913,0.5597 17.57465,5.2912 27,7.1767 15.3576,3.0721 32.7879,-3.3859 42,-16.1921 h 1 c 10.05872,17.39 33.81141,20.7249 51,12.6767 4.61481,-2.1609 11.24347,-10.6212 16,-10.6212 4.97784,0 12.08771,9.0496 17,11.2755 18.46381,8.3664 41.34253,2.2071 52.99997,-14.331 h 1 c 11.6411,16.8838 34.4974,22.9812 53.00001,13.7299 8.35992,-4.1799 13.31852,-13.6153 22.99999,-13.7299 l 1,-25 c -4.49017,0 -13.55797,-1.7417 -17.30089,1.0277 -2.6138,1.934 -3.6184,6.3189 -5.6273,8.882 -4.69557,5.9911 -12.42711,10.061 -20.07181,10.061 -7.6962,0 -14.8719,-4.0034 -19.6095,-9.9746 -2.0772,-2.618 -3.1015,-7.058 -5.8889,-8.9684 -3.3918,-2.3245 -11.5119,-1.3349 -15.4576,-0.9692 -6.35891,0.5896 -8.26644,10.7189 -13.05941,14.5479 -15.06549,12.0355 -35.95386,2.8166 -40.98456,-14.6064 h -20 c -4.06982,22.5515 -27.62268,22.4472 -43,13 v -1 c 12.21735,-7.0622 28.82245,-20.48722 37,-32.00004 l -53,-13.00305 -86,-20.99695 c 2.45541,-8.65247 4.8027,-17.32001 7.15125,-26 0.76898,-2.84204 1.39132,-8.26294 4.27853,-9.79858 5.22772,-2.78064 20.09048,3.53381 25.57022,5.08874 21.74841,6.17114 43.9751,11.66052 66,16.70984 l 11,-18 -98,-24 c 3.35992,-22.83606 12.24451,-45.66998 18.11572,-68 11.04108,-41.99249 21.68317,-84.16724 33.30866,-126 6.34704,-22.83911 16.64764,-48.39801 18.57562,-72 l -19.41125,-3.88196 -6.01313,18.88196 -15.20447,57 -47.66128,179 -12.41898,45 -5.99304,17.3573 -9.29785,-0.009 -25,-6.19445 -59,-14.03858 -38,-8.11572 m 232,-242 c 2.24121,16.62988 10.55237,32.06018 12.71448,49 5.30523,41.56561 -5.03809,84.56799 -27.13965,120 -10.72034,17.18628 -27.14343,28.77185 -38.57483,45 22.5788,0.18689 46.45905,6.78015 67,15.86188 5.05548,2.23517 19.62787,13.13727 24.69983,10.32098 4.25946,-2.36511 7.37506,-9.21069 9.95526,-13.18286 9.01276,-13.87512 15.65002,-29.11823 20.20367,-45 18.60743,-64.89685 -0.3435,-152.43799 -68.85876,-182 m -195,94 38,8 c -3.43774,14.5069 -10.47302,29.14075 -16,43 -2.89343,7.25549 -7.32446,14.92438 -5.47067,23 3.22027,14.02844 21.4772,19.89917 30.83334,7.90662 6.14331,-7.87433 8.30084,-19.66132 11.69055,-28.90662 6.07547,-16.57068 17.866,-35.35815 19.60727,-53 2.01712,-20.43671 -21.03357,-23.65637 -35.66049,-26.60034 -4.44913,-0.89545 -11.56195,-4.04144 -15.96063,-2.20136 -9.19504,3.84656 -21.32468,20.68787 -27.03937,28.8017 m -27.95679,49.74615 c -11.98813,4.68757 -3.87286,28.9621 -0.59338,37.25385 9.74606,24.64172 27.48749,41.72711 52.55017,49.99927 6.71695,2.21692 18.16138,7.13232 24.95602,3.54321 5.63446,-2.97632 6.6969,-10.85364 1.89585,-15.12353 -7.31311,-6.50397 -21.93665,-6.16968 -30.85187,-10.90815 -24.26892,-12.89904 -28.63504,-32.40838 -34.53317,-56.51007 -1.40039,-5.72241 -7.32532,-10.63916 -13.42362,-8.25458 z"
       id="path1" />
  </g>
</svg>
